<svg width="193" height="20" viewBox="0 0 193 20" fill="none" xmlns="http://www.w3.org/2000/svg">
<path d="M0 0.527344H2.68359L11.7305 9.02344L21.0234 0.527344H23.6133V19.2422H15.9141V13.1719L11.1328 18.4219L6.48047 13.3125V19.2422H0V0.527344ZM28.8773 11.9414L23.1703 0.527344H31.5258L33.3891 4.35938L35.3109 0.527344H42.2953L36.4711 11.9414V19.2422H28.8773V11.9414ZM41.5711 13.0312C41.618 13.0391 41.8367 13.1094 42.2273 13.2422C42.6258 13.3672 43.1063 13.5117 43.6688 13.6758C44.2313 13.832 44.7938 13.9727 45.3563 14.0977C45.9266 14.2148 46.4109 14.2734 46.8094 14.2734C47.1531 14.2734 47.4344 14.2227 47.6531 14.1211C47.8719 14.0195 47.9813 13.832 47.9813 13.5586C47.9813 13.2617 47.825 12.9922 47.5125 12.75C47.2 12.5078 46.7977 12.2578 46.3055 12C45.8211 11.7422 45.3016 11.4492 44.7469 11.1211C44.2 10.793 43.6805 10.3984 43.1883 9.9375C42.7039 9.47656 42.3055 8.92578 41.993 8.28516C41.6805 7.63672 41.5242 6.86328 41.5242 5.96484C41.5242 4.86328 41.7547 3.93359 42.2156 3.17578C42.6766 2.41016 43.2938 1.79688 44.0672 1.33594C44.8484 0.867188 45.7234 0.527344 46.6922 0.316406C47.6688 0.105469 48.6688 0 49.6922 0C50.5594 0 51.3797 0.046875 52.1531 0.140625C52.9266 0.234375 53.5789 0.335938 54.1102 0.445312C54.6492 0.554688 54.9891 0.628906 55.1297 0.667969V6.04688C55.1297 6.04688 54.9656 6.01172 54.6375 5.94141C54.3172 5.87109 53.9109 5.79297 53.4188 5.70703C52.9344 5.62109 52.4305 5.54297 51.907 5.47266C51.3914 5.40234 50.9383 5.36719 50.5477 5.36719C50.1883 5.36719 49.9188 5.42969 49.7391 5.55469C49.5594 5.67969 49.4695 5.82812 49.4695 6C49.4695 6.14062 49.5477 6.29688 49.7039 6.46875C49.8602 6.63281 50.0477 6.76172 50.2664 6.85547C51.0867 7.21484 51.8602 7.58203 52.5867 7.95703C53.3133 8.33203 53.9539 8.76562 54.5086 9.25781C55.0633 9.75 55.4969 10.3516 55.8094 11.0625C56.1297 11.7656 56.2898 12.6289 56.2898 13.6523C56.2898 14.8711 55.9813 15.9336 55.3641 16.8398C54.7547 17.7461 53.8719 18.4492 52.7156 18.9492C51.5672 19.4492 50.1805 19.6992 48.5555 19.6992C47.157 19.6992 46.0047 19.6328 45.0984 19.5C44.1922 19.3672 43.4813 19.2188 42.9656 19.0547C42.45 18.8828 42.0867 18.7305 41.8758 18.5977C41.6727 18.4648 41.5711 18.3984 41.5711 18.3984V13.0312ZM56.1867 0.527344H63.5812V11.5664C63.5812 12.2305 63.7414 12.7891 64.0617 13.2422C64.382 13.6875 64.9016 13.9102 65.6203 13.9102C66.3391 13.9102 66.8586 13.6797 67.1789 13.2188C67.4992 12.75 67.6594 12.1836 67.6594 11.5195V0.527344H74.1398V11.7773C74.1398 14.4648 73.3977 16.457 71.9133 17.7539C70.4367 19.0508 68.3 19.6992 65.5031 19.6992C62.4562 19.6992 60.1398 19.0508 58.5539 17.7539C56.9758 16.457 56.1867 14.4648 56.1867 11.7773V0.527344ZM83.7633 0C85.943 0 87.7086 0.257812 89.0602 0.773438C90.4195 1.28906 91.4156 2.10547 92.0484 3.22266C92.6813 4.33984 92.9977 5.80859 92.9977 7.62891C92.9977 8.84766 92.7672 9.96484 92.3063 10.9805C91.8531 11.9883 91.2242 12.8594 90.4195 13.5938C89.6148 14.3281 88.6773 14.8984 87.607 15.3047C86.5445 15.7031 85.4039 15.9023 84.1852 15.9023C83.8727 15.9023 83.5484 15.8945 83.2125 15.8789C82.8844 15.8633 82.5133 15.8555 82.0992 15.8555V19.2422H74.4469V0.574219C76.2672 0.394531 77.9469 0.253906 79.4859 0.152344C81.025 0.0507812 82.4508 0 83.7633 0ZM85.0055 4.86328C84.732 4.86328 84.4234 4.93359 84.0797 5.07422C83.7438 5.21484 83.4195 5.37891 83.107 5.56641C82.8023 5.74609 82.5484 5.90625 82.3453 6.04688C82.15 6.1875 82.0523 6.25781 82.0523 6.25781V10.6758L83.4234 10.0078C84.2125 9.61719 84.8922 9.13672 85.4625 8.56641C86.0406 7.98828 86.3297 7.24219 86.3297 6.32812C86.3297 5.9375 86.2125 5.59766 85.9781 5.30859C85.7516 5.01172 85.4273 4.86328 85.0055 4.86328ZM92.5781 0.527344H106.066V5.91797H99.8672V7.45312H106.043V12.0469H99.8672V13.8164H106.477V19.2422H92.5781V0.527344ZM106.866 19.2422V0.527344C106.866 0.527344 107.108 0.511719 107.592 0.480469C108.084 0.441406 108.725 0.394531 109.514 0.339844C110.311 0.285156 111.178 0.234375 112.116 0.1875C113.061 0.132812 113.995 0.0898438 114.916 0.0585938C115.846 0.0195312 116.674 0 117.401 0C118.916 0 120.202 0.199219 121.256 0.597656C122.311 0.988281 123.162 1.50781 123.811 2.15625C124.459 2.80469 124.932 3.51953 125.229 4.30078C125.534 5.08203 125.686 5.86328 125.686 6.64453C125.686 8.01172 125.338 9.1875 124.643 10.1719C123.948 11.1484 123.061 11.957 121.983 12.5977L127.069 19.2422H117.811L114.518 13.8164V19.2422H106.866ZM114.471 10.4062C115.987 9.84375 117.073 9.23438 117.729 8.57812C118.393 7.91406 118.725 7.20312 118.725 6.44531C118.725 5.8125 118.608 5.37891 118.373 5.14453C118.139 4.91016 117.846 4.79297 117.495 4.79297C117.268 4.79297 117.034 4.83203 116.791 4.91016C116.549 4.98047 116.295 5.07031 116.03 5.17969L114.471 5.82422V10.4062ZM126.942 0.527344H129.626L138.673 9.02344L147.966 0.527344H150.555V19.2422H142.856V13.1719L138.075 18.4219L133.423 13.3125V19.2422H126.942V0.527344ZM149.995 19.2422L159.3 1.47656C159.527 1.04688 159.878 0.714844 160.355 0.480469C160.831 0.238281 161.327 0.117188 161.843 0.117188C162.304 0.117188 162.753 0.222656 163.191 0.433594C163.636 0.644531 163.98 0.96875 164.222 1.40625L174.206 19.2422H164.702L163.964 17.3906H158.902L158.269 19.2422H149.995ZM159.476 13.6758H163.261L161.468 8.61328L159.476 13.6758ZM173.587 0.527344H175.486L185.705 7.81641V0.527344H192.302V19.2422H189.783L180.162 12.8086V19.2422H173.587V0.527344Z" fill="#F08080"/>
</svg>
